# xmcd CD database file
#
# Track frame offsets:
#	150
#	21935
#	41921
#	58694
#	86879
#	101064
#	125388
#	142735
#	158583
#	166256
#	179616
#
# Disc length: 2597 seconds
#
# Revision: 0
# Processed by: cddbd v1.5PL3 Copyright (c) Steve Scherf et al.
# Submitted via: CDex 1.51
#
DISCID=910a230b
DTITLE=Sojiro - Healing Garden III Acoustic
DYEAR=1999
DGENRE=New Age
TTITLE0=(Japanese Titles)
TTITLE1=(Japanese Titles)
TTITLE2=(Japanese Titles)
TTITLE3=(Japanese Titles)
TTITLE4=(Japanese Titles)
TTITLE5=(Japanese Titles)
TTITLE6=(Japanese Titles)
TTITLE7=(Japanese Titles)
TTITLE8=(Japanese Titles)
TTITLE9=(Japanese Titles)
TTITLE10=(Japanese Titles)
EXTD=YEAR: 1999
EXTT0=
EXTT1=
EXTT2=
EXTT3=
EXTT4=
EXTT5=
EXTT6=
EXTT7=
EXTT8=
EXTT9=
EXTT10=
PLAYORDER=
